<mxfile host="app.diagrams.net" modified="2023-07-31T04:41:06.227Z" agent="Mozilla/5.0 (Windows NT 10.0; Win64; x64) AppleWebKit/537.36 (KHTML, like Gecko) Chrome/115.0.0.0 Safari/537.36" etag="Xz59U1dr35X8lr04lsHs" version="21.6.6" type="github">
  <diagram id="C5RBs43oDa-KdzZeNtuy" name="Page-1">
    <mxGraphModel dx="1153" dy="438" grid="1" gridSize="10" guides="1" tooltips="1" connect="1" arrows="1" fold="1" page="1" pageScale="1" pageWidth="827" pageHeight="1169" math="0" shadow="0">
      <root>
        <mxCell id="WIyWlLk6GJQsqaUBKTNV-0" />
        <mxCell id="WIyWlLk6GJQsqaUBKTNV-1" parent="WIyWlLk6GJQsqaUBKTNV-0" />
        <mxCell id="WumvJ4lYRt79ldeFu9Rn-1" value="Inicio" style="ellipse;whiteSpace=wrap;html=1;labelBackgroundColor=none;fillColor=#182E3E;strokeColor=#FFFFFF;fontColor=#FFFFFF;rounded=1;" parent="WIyWlLk6GJQsqaUBKTNV-1" vertex="1">
          <mxGeometry x="524.38" y="320" width="70" height="40" as="geometry" />
        </mxCell>
        <mxCell id="WumvJ4lYRt79ldeFu9Rn-15" value="" style="edgeStyle=orthogonalEdgeStyle;rounded=1;orthogonalLoop=1;jettySize=auto;html=1;labelBackgroundColor=none;strokeColor=#23445D;fontColor=default;" parent="WIyWlLk6GJQsqaUBKTNV-1" source="WumvJ4lYRt79ldeFu9Rn-2" target="WumvJ4lYRt79ldeFu9Rn-13" edge="1">
          <mxGeometry relative="1" as="geometry" />
        </mxCell>
        <mxCell id="WumvJ4lYRt79ldeFu9Rn-2" value="Incluir librerías necesarias:&lt;br&gt;- stdio.h&lt;br&gt;-&amp;nbsp;stdarg.h&lt;br&gt;-&amp;nbsp;main.h&lt;br&gt;-&amp;nbsp;limits.h&lt;br&gt;-&amp;nbsp;stdlib.h" style="rounded=1;whiteSpace=wrap;html=1;labelBackgroundColor=none;fillColor=#182E3E;strokeColor=#FFFFFF;fontColor=#FFFFFF;" parent="WIyWlLk6GJQsqaUBKTNV-1" vertex="1">
          <mxGeometry x="456.88" y="420" width="205" height="140" as="geometry" />
        </mxCell>
        <mxCell id="WumvJ4lYRt79ldeFu9Rn-3" value="" style="endArrow=classic;html=1;rounded=1;exitX=0.5;exitY=1;exitDx=0;exitDy=0;entryX=0.5;entryY=0;entryDx=0;entryDy=0;labelBackgroundColor=none;strokeColor=#23445D;fontColor=default;" parent="WIyWlLk6GJQsqaUBKTNV-1" source="WumvJ4lYRt79ldeFu9Rn-1" target="WumvJ4lYRt79ldeFu9Rn-2" edge="1">
          <mxGeometry width="50" height="50" relative="1" as="geometry">
            <mxPoint x="684.38" y="420" as="sourcePoint" />
            <mxPoint x="654.38" y="460" as="targetPoint" />
            <Array as="points" />
          </mxGeometry>
        </mxCell>
        <mxCell id="WumvJ4lYRt79ldeFu9Rn-17" value="" style="edgeStyle=orthogonalEdgeStyle;rounded=1;orthogonalLoop=1;jettySize=auto;html=1;labelBackgroundColor=none;strokeColor=#23445D;fontColor=default;" parent="WIyWlLk6GJQsqaUBKTNV-1" source="WumvJ4lYRt79ldeFu9Rn-13" target="WumvJ4lYRt79ldeFu9Rn-16" edge="1">
          <mxGeometry relative="1" as="geometry" />
        </mxCell>
        <mxCell id="WumvJ4lYRt79ldeFu9Rn-13" value="Definir la función print_char" style="whiteSpace=wrap;html=1;labelBackgroundColor=none;fillColor=#182E3E;strokeColor=#FFFFFF;fontColor=#FFFFFF;rounded=1;" parent="WIyWlLk6GJQsqaUBKTNV-1" vertex="1">
          <mxGeometry x="475" y="620" width="168.75" height="60" as="geometry" />
        </mxCell>
        <mxCell id="WumvJ4lYRt79ldeFu9Rn-20" value="" style="edgeStyle=orthogonalEdgeStyle;rounded=1;orthogonalLoop=1;jettySize=auto;html=1;labelBackgroundColor=none;strokeColor=#23445D;fontColor=default;" parent="WIyWlLk6GJQsqaUBKTNV-1" source="WumvJ4lYRt79ldeFu9Rn-16" target="WumvJ4lYRt79ldeFu9Rn-19" edge="1">
          <mxGeometry relative="1" as="geometry" />
        </mxCell>
        <mxCell id="WumvJ4lYRt79ldeFu9Rn-16" value="Iniciar función print_char(c)" style="rhombus;whiteSpace=wrap;html=1;labelBackgroundColor=none;fillColor=#182E3E;strokeColor=#FFFFFF;fontColor=#FFFFFF;rounded=1;" parent="WIyWlLk6GJQsqaUBKTNV-1" vertex="1">
          <mxGeometry x="705.63" y="570" width="112.5" height="100" as="geometry" />
        </mxCell>
        <mxCell id="WumvJ4lYRt79ldeFu9Rn-22" value="" style="edgeStyle=orthogonalEdgeStyle;rounded=1;orthogonalLoop=1;jettySize=auto;html=1;exitX=0.5;exitY=1;exitDx=0;exitDy=0;labelBackgroundColor=none;strokeColor=#23445D;fontColor=default;" parent="WIyWlLk6GJQsqaUBKTNV-1" source="WumvJ4lYRt79ldeFu9Rn-13" target="WumvJ4lYRt79ldeFu9Rn-21" edge="1">
          <mxGeometry relative="1" as="geometry" />
        </mxCell>
        <mxCell id="WumvJ4lYRt79ldeFu9Rn-19" value="1. Imprimir el carácter c en la salida estándar (putchar(c))&lt;br&gt;2. Retornar 1" style="whiteSpace=wrap;html=1;labelBackgroundColor=none;fillColor=#182E3E;strokeColor=#FFFFFF;fontColor=#FFFFFF;rounded=1;" parent="WIyWlLk6GJQsqaUBKTNV-1" vertex="1">
          <mxGeometry x="874.38" y="590" width="322.5" height="60" as="geometry" />
        </mxCell>
        <mxCell id="WumvJ4lYRt79ldeFu9Rn-24" value="" style="edgeStyle=orthogonalEdgeStyle;rounded=1;orthogonalLoop=1;jettySize=auto;html=1;labelBackgroundColor=none;strokeColor=#23445D;fontColor=default;" parent="WIyWlLk6GJQsqaUBKTNV-1" source="WumvJ4lYRt79ldeFu9Rn-21" target="WumvJ4lYRt79ldeFu9Rn-23" edge="1">
          <mxGeometry relative="1" as="geometry" />
        </mxCell>
        <mxCell id="WumvJ4lYRt79ldeFu9Rn-21" value="Definir la función print_string" style="whiteSpace=wrap;html=1;labelBackgroundColor=none;fillColor=#182E3E;strokeColor=#FFFFFF;fontColor=#FFFFFF;rounded=1;" parent="WIyWlLk6GJQsqaUBKTNV-1" vertex="1">
          <mxGeometry x="471.26" y="830" width="172.49" height="60" as="geometry" />
        </mxCell>
        <mxCell id="WumvJ4lYRt79ldeFu9Rn-26" value="" style="edgeStyle=orthogonalEdgeStyle;rounded=1;orthogonalLoop=1;jettySize=auto;html=1;entryX=0.5;entryY=0;entryDx=0;entryDy=0;exitX=0.5;exitY=1;exitDx=0;exitDy=0;labelBackgroundColor=none;strokeColor=#23445D;fontColor=default;" parent="WIyWlLk6GJQsqaUBKTNV-1" source="WumvJ4lYRt79ldeFu9Rn-21" target="WumvJ4lYRt79ldeFu9Rn-52" edge="1">
          <mxGeometry relative="1" as="geometry">
            <mxPoint x="557.5049999999998" y="1230" as="targetPoint" />
          </mxGeometry>
        </mxCell>
        <mxCell id="WumvJ4lYRt79ldeFu9Rn-28" value="" style="edgeStyle=orthogonalEdgeStyle;rounded=1;orthogonalLoop=1;jettySize=auto;html=1;labelBackgroundColor=none;strokeColor=#23445D;fontColor=default;" parent="WIyWlLk6GJQsqaUBKTNV-1" source="WumvJ4lYRt79ldeFu9Rn-23" target="WumvJ4lYRt79ldeFu9Rn-27" edge="1">
          <mxGeometry relative="1" as="geometry" />
        </mxCell>
        <mxCell id="WumvJ4lYRt79ldeFu9Rn-23" value="Iniciar función print_string(str)" style="rhombus;whiteSpace=wrap;html=1;labelBackgroundColor=none;fillColor=#182E3E;strokeColor=#FFFFFF;fontColor=#FFFFFF;rounded=1;" parent="WIyWlLk6GJQsqaUBKTNV-1" vertex="1">
          <mxGeometry x="715.38" y="805" width="132.51" height="110" as="geometry" />
        </mxCell>
        <mxCell id="WumvJ4lYRt79ldeFu9Rn-30" value="" style="edgeStyle=orthogonalEdgeStyle;rounded=1;orthogonalLoop=1;jettySize=auto;html=1;labelBackgroundColor=none;strokeColor=#23445D;fontColor=default;" parent="WIyWlLk6GJQsqaUBKTNV-1" source="WumvJ4lYRt79ldeFu9Rn-27" target="WumvJ4lYRt79ldeFu9Rn-29" edge="1">
          <mxGeometry relative="1" as="geometry">
            <Array as="points">
              <mxPoint x="940.38" y="1120" />
              <mxPoint x="1141.38" y="1120" />
            </Array>
          </mxGeometry>
        </mxCell>
        <mxCell id="WumvJ4lYRt79ldeFu9Rn-27" value="Si str es NULL" style="rhombus;whiteSpace=wrap;html=1;labelBackgroundColor=none;fillColor=#182E3E;strokeColor=#FFFFFF;fontColor=#FFFFFF;rounded=1;" parent="WIyWlLk6GJQsqaUBKTNV-1" vertex="1">
          <mxGeometry x="804.38" y="970" width="132.51" height="110" as="geometry" />
        </mxCell>
        <mxCell id="WumvJ4lYRt79ldeFu9Rn-29" value="- Inicializar nullStr a &quot;(null)&quot;&lt;br&gt;" style="whiteSpace=wrap;html=1;labelBackgroundColor=none;fillColor=#182E3E;strokeColor=#FFFFFF;fontColor=#FFFFFF;rounded=1;" parent="WIyWlLk6GJQsqaUBKTNV-1" vertex="1">
          <mxGeometry x="1041.37" y="1030" width="200.01" height="60" as="geometry" />
        </mxCell>
        <mxCell id="WumvJ4lYRt79ldeFu9Rn-32" value="&lt;font color=&quot;#000033&quot;&gt;si&lt;/font&gt;" style="text;html=1;strokeColor=none;fillColor=none;align=center;verticalAlign=middle;whiteSpace=wrap;rounded=1;labelBackgroundColor=none;fontColor=#FFFFFF;" parent="WIyWlLk6GJQsqaUBKTNV-1" vertex="1">
          <mxGeometry x="944.38" y="1090" width="70" height="20" as="geometry" />
        </mxCell>
        <mxCell id="WumvJ4lYRt79ldeFu9Rn-34" value="Mientras el carácter apuntado por nullStr no sea nulo" style="rhombus;whiteSpace=wrap;html=1;labelBackgroundColor=none;fillColor=#182E3E;strokeColor=#FFFFFF;fontColor=#FFFFFF;rounded=1;" parent="WIyWlLk6GJQsqaUBKTNV-1" vertex="1">
          <mxGeometry x="981.38" y="770" width="323" height="100" as="geometry" />
        </mxCell>
        <mxCell id="WumvJ4lYRt79ldeFu9Rn-35" value="-&amp;nbsp;Imprimir el carácter apuntado por nullStr en la salida estándar&lt;br&gt;-&amp;nbsp;Incrementar count&lt;br&gt;-&amp;nbsp;Avanzar nullStr al siguiente carácter" style="rounded=1;whiteSpace=wrap;html=1;labelBackgroundColor=none;fillColor=#182E3E;strokeColor=#FFFFFF;fontColor=#FFFFFF;" parent="WIyWlLk6GJQsqaUBKTNV-1" vertex="1">
          <mxGeometry x="1001.37" y="890" width="280" height="65" as="geometry" />
        </mxCell>
        <mxCell id="WumvJ4lYRt79ldeFu9Rn-36" value="" style="endArrow=none;html=1;rounded=1;entryX=0;entryY=0.5;entryDx=0;entryDy=0;labelBackgroundColor=none;strokeColor=#23445D;fontColor=default;" parent="WIyWlLk6GJQsqaUBKTNV-1" target="WumvJ4lYRt79ldeFu9Rn-34" edge="1">
          <mxGeometry width="50" height="50" relative="1" as="geometry">
            <mxPoint x="1074.38" y="1000" as="sourcePoint" />
            <mxPoint x="1004.38" y="900" as="targetPoint" />
            <Array as="points">
              <mxPoint x="1143.38" y="1000" />
              <mxPoint x="981.38" y="1000" />
              <mxPoint x="981.38" y="900" />
            </Array>
          </mxGeometry>
        </mxCell>
        <mxCell id="WumvJ4lYRt79ldeFu9Rn-38" value="" style="endArrow=none;html=1;rounded=1;entryX=0.5;entryY=1;entryDx=0;entryDy=0;exitX=0.5;exitY=0;exitDx=0;exitDy=0;labelBackgroundColor=none;strokeColor=#23445D;fontColor=default;" parent="WIyWlLk6GJQsqaUBKTNV-1" source="WumvJ4lYRt79ldeFu9Rn-35" target="WumvJ4lYRt79ldeFu9Rn-34" edge="1">
          <mxGeometry width="50" height="50" relative="1" as="geometry">
            <mxPoint x="1034.38" y="990" as="sourcePoint" />
            <mxPoint x="1084.38" y="940" as="targetPoint" />
          </mxGeometry>
        </mxCell>
        <mxCell id="WumvJ4lYRt79ldeFu9Rn-39" value="" style="endArrow=none;html=1;rounded=1;entryX=0.5;entryY=1;entryDx=0;entryDy=0;exitX=0.5;exitY=0;exitDx=0;exitDy=0;labelBackgroundColor=none;strokeColor=#23445D;fontColor=default;" parent="WIyWlLk6GJQsqaUBKTNV-1" source="WumvJ4lYRt79ldeFu9Rn-29" target="WumvJ4lYRt79ldeFu9Rn-35" edge="1">
          <mxGeometry width="50" height="50" relative="1" as="geometry">
            <mxPoint x="854.38" y="1060" as="sourcePoint" />
            <mxPoint x="904.38" y="1010" as="targetPoint" />
          </mxGeometry>
        </mxCell>
        <mxCell id="WumvJ4lYRt79ldeFu9Rn-40" value="" style="endArrow=none;html=1;rounded=1;exitX=1;exitY=0.5;exitDx=0;exitDy=0;labelBackgroundColor=none;strokeColor=#23445D;fontColor=default;" parent="WIyWlLk6GJQsqaUBKTNV-1" source="WumvJ4lYRt79ldeFu9Rn-34" edge="1">
          <mxGeometry width="50" height="50" relative="1" as="geometry">
            <mxPoint x="1294.38" y="820" as="sourcePoint" />
            <mxPoint x="1144.38" y="1000" as="targetPoint" />
            <Array as="points">
              <mxPoint x="1304.38" y="1000" />
            </Array>
          </mxGeometry>
        </mxCell>
        <mxCell id="WumvJ4lYRt79ldeFu9Rn-42" value="" style="endArrow=classic;html=1;rounded=1;exitX=0.5;exitY=1;exitDx=0;exitDy=0;entryX=0;entryY=0.5;entryDx=0;entryDy=0;labelBackgroundColor=none;strokeColor=#23445D;fontColor=default;" parent="WIyWlLk6GJQsqaUBKTNV-1" source="WumvJ4lYRt79ldeFu9Rn-27" target="WumvJ4lYRt79ldeFu9Rn-43" edge="1">
          <mxGeometry width="50" height="50" relative="1" as="geometry">
            <mxPoint x="940.38" y="1280" as="sourcePoint" />
            <mxPoint x="1044.38" y="1290" as="targetPoint" />
            <Array as="points">
              <mxPoint x="870.38" y="1215" />
            </Array>
          </mxGeometry>
        </mxCell>
        <mxCell id="WumvJ4lYRt79ldeFu9Rn-43" value="-&amp;nbsp;Imprimir el carácter apuntado por str en la salida estándar&lt;br&gt;-&amp;nbsp;Incrementar count&lt;br&gt;-&amp;nbsp;Avanzar str al siguiente carácter" style="rounded=1;whiteSpace=wrap;html=1;labelBackgroundColor=none;fillColor=#182E3E;strokeColor=#FFFFFF;fontColor=#FFFFFF;" parent="WIyWlLk6GJQsqaUBKTNV-1" vertex="1">
          <mxGeometry x="974.38" y="1170" width="260" height="90" as="geometry" />
        </mxCell>
        <mxCell id="WumvJ4lYRt79ldeFu9Rn-44" value="&lt;font color=&quot;#000033&quot;&gt;no&lt;/font&gt;" style="text;html=1;strokeColor=none;fillColor=none;align=center;verticalAlign=middle;whiteSpace=wrap;rounded=1;labelBackgroundColor=none;fontColor=#FFFFFF;" parent="WIyWlLk6GJQsqaUBKTNV-1" vertex="1">
          <mxGeometry x="884.38" y="1190" width="60" height="20" as="geometry" />
        </mxCell>
        <mxCell id="WumvJ4lYRt79ldeFu9Rn-46" value="" style="endArrow=none;html=1;rounded=1;exitX=1;exitY=0.5;exitDx=0;exitDy=0;entryX=1;entryY=0.5;entryDx=0;entryDy=0;labelBackgroundColor=none;strokeColor=#23445D;fontColor=default;" parent="WIyWlLk6GJQsqaUBKTNV-1" source="WumvJ4lYRt79ldeFu9Rn-43" target="WumvJ4lYRt79ldeFu9Rn-29" edge="1">
          <mxGeometry width="50" height="50" relative="1" as="geometry">
            <mxPoint x="1034.38" y="1200" as="sourcePoint" />
            <mxPoint x="1354.38" y="1060" as="targetPoint" />
            <Array as="points">
              <mxPoint x="1354.38" y="1215" />
              <mxPoint x="1354.38" y="1060" />
            </Array>
          </mxGeometry>
        </mxCell>
        <mxCell id="WumvJ4lYRt79ldeFu9Rn-47" value="" style="endArrow=none;html=1;rounded=1;labelBackgroundColor=none;strokeColor=#23445D;fontColor=default;" parent="WIyWlLk6GJQsqaUBKTNV-1" edge="1">
          <mxGeometry width="50" height="50" relative="1" as="geometry">
            <mxPoint x="1434.38" y="1160" as="sourcePoint" />
            <mxPoint x="1354.38" y="1160" as="targetPoint" />
          </mxGeometry>
        </mxCell>
        <mxCell id="WumvJ4lYRt79ldeFu9Rn-48" value="retorna count" style="shape=parallelogram;perimeter=parallelogramPerimeter;whiteSpace=wrap;html=1;fixedSize=1;labelBackgroundColor=none;fillColor=#182E3E;strokeColor=#FFFFFF;fontColor=#FFFFFF;rounded=1;" parent="WIyWlLk6GJQsqaUBKTNV-1" vertex="1">
          <mxGeometry x="1424.38" y="1135" width="120" height="60" as="geometry" />
        </mxCell>
        <mxCell id="k4tp6VtG_gmkp5LK19nQ-2" value="" style="edgeStyle=orthogonalEdgeStyle;rounded=0;orthogonalLoop=1;jettySize=auto;html=1;" edge="1" parent="WIyWlLk6GJQsqaUBKTNV-1" source="WumvJ4lYRt79ldeFu9Rn-52" target="k4tp6VtG_gmkp5LK19nQ-1">
          <mxGeometry relative="1" as="geometry" />
        </mxCell>
        <mxCell id="WumvJ4lYRt79ldeFu9Rn-52" value="Definir la función print_int" style="whiteSpace=wrap;html=1;labelBackgroundColor=none;fillColor=#182E3E;strokeColor=#FFFFFF;fontColor=#FFFFFF;rounded=1;" parent="WIyWlLk6GJQsqaUBKTNV-1" vertex="1">
          <mxGeometry x="471.26" y="1570" width="172.49" height="60" as="geometry" />
        </mxCell>
        <mxCell id="WumvJ4lYRt79ldeFu9Rn-56" value="" style="edgeStyle=orthogonalEdgeStyle;rounded=1;orthogonalLoop=1;jettySize=auto;html=1;labelBackgroundColor=none;strokeColor=#23445D;fontColor=default;" parent="WIyWlLk6GJQsqaUBKTNV-1" source="WumvJ4lYRt79ldeFu9Rn-53" target="WumvJ4lYRt79ldeFu9Rn-55" edge="1">
          <mxGeometry relative="1" as="geometry" />
        </mxCell>
        <mxCell id="WumvJ4lYRt79ldeFu9Rn-53" value="Iniciar función print_int(num)" style="rhombus;whiteSpace=wrap;html=1;labelBackgroundColor=none;fillColor=#182E3E;strokeColor=#FFFFFF;fontColor=#FFFFFF;rounded=1;" parent="WIyWlLk6GJQsqaUBKTNV-1" vertex="1">
          <mxGeometry x="724.38" y="1540" width="150" height="120" as="geometry" />
        </mxCell>
        <mxCell id="WumvJ4lYRt79ldeFu9Rn-54" value="" style="endArrow=classic;html=1;rounded=1;entryX=0;entryY=0.5;entryDx=0;entryDy=0;exitX=1;exitY=0.5;exitDx=0;exitDy=0;labelBackgroundColor=none;strokeColor=#23445D;fontColor=default;" parent="WIyWlLk6GJQsqaUBKTNV-1" source="WumvJ4lYRt79ldeFu9Rn-52" target="WumvJ4lYRt79ldeFu9Rn-53" edge="1">
          <mxGeometry width="50" height="50" relative="1" as="geometry">
            <mxPoint x="665.38" y="1620" as="sourcePoint" />
            <mxPoint x="715.38" y="1570" as="targetPoint" />
          </mxGeometry>
        </mxCell>
        <mxCell id="WumvJ4lYRt79ldeFu9Rn-58" value="" style="edgeStyle=orthogonalEdgeStyle;rounded=1;orthogonalLoop=1;jettySize=auto;html=1;strokeColor=#23445D;labelBackgroundColor=none;fontColor=default;" parent="WIyWlLk6GJQsqaUBKTNV-1" source="WumvJ4lYRt79ldeFu9Rn-55" target="WumvJ4lYRt79ldeFu9Rn-57" edge="1">
          <mxGeometry relative="1" as="geometry" />
        </mxCell>
        <mxCell id="WumvJ4lYRt79ldeFu9Rn-55" value="- Declarar el arreglo de caracteres digits con capacidad para 12 elementos&lt;br&gt;- Inicializar digitsNumbers a 0 (contador de dígitos)&lt;br&gt;- Inicializar count a 0 (contador total de caracteres impresos)&lt;br&gt;- Inicializar isNegative a 0 (indica si el número es negativo)&lt;br&gt;- Si num es igual a 0" style="whiteSpace=wrap;html=1;labelBackgroundColor=none;fillColor=#182E3E;strokeColor=#FFFFFF;fontColor=#FFFFFF;rounded=1;" parent="WIyWlLk6GJQsqaUBKTNV-1" vertex="1">
          <mxGeometry x="954.38" y="1540" width="435" height="120" as="geometry" />
        </mxCell>
        <mxCell id="WumvJ4lYRt79ldeFu9Rn-60" value="" style="edgeStyle=orthogonalEdgeStyle;rounded=1;orthogonalLoop=1;jettySize=auto;html=1;strokeColor=#23445D;labelBackgroundColor=none;fontColor=default;" parent="WIyWlLk6GJQsqaUBKTNV-1" source="WumvJ4lYRt79ldeFu9Rn-57" target="WumvJ4lYRt79ldeFu9Rn-59" edge="1">
          <mxGeometry relative="1" as="geometry" />
        </mxCell>
        <mxCell id="WumvJ4lYRt79ldeFu9Rn-65" value="" style="edgeStyle=orthogonalEdgeStyle;rounded=1;orthogonalLoop=1;jettySize=auto;html=1;strokeColor=#23445D;exitX=0.5;exitY=1;exitDx=0;exitDy=0;labelBackgroundColor=none;fontColor=default;" parent="WIyWlLk6GJQsqaUBKTNV-1" source="WumvJ4lYRt79ldeFu9Rn-57" target="WumvJ4lYRt79ldeFu9Rn-64" edge="1">
          <mxGeometry relative="1" as="geometry" />
        </mxCell>
        <mxCell id="WumvJ4lYRt79ldeFu9Rn-96" value="" style="edgeStyle=orthogonalEdgeStyle;rounded=0;orthogonalLoop=1;jettySize=auto;html=1;exitX=0.5;exitY=0.988;exitDx=0;exitDy=0;exitPerimeter=0;labelBackgroundColor=none;strokeColor=#23445D;fontColor=default;" parent="WIyWlLk6GJQsqaUBKTNV-1" source="WumvJ4lYRt79ldeFu9Rn-55" target="WumvJ4lYRt79ldeFu9Rn-95" edge="1">
          <mxGeometry relative="1" as="geometry" />
        </mxCell>
        <mxCell id="WumvJ4lYRt79ldeFu9Rn-57" value="Si num es igual a 0" style="rhombus;whiteSpace=wrap;html=1;fillColor=#182E3E;strokeColor=#FFFFFF;fontColor=#FFFFFF;labelBackgroundColor=none;rounded=1;" parent="WIyWlLk6GJQsqaUBKTNV-1" vertex="1">
          <mxGeometry x="1494.38" y="1555" width="170" height="90" as="geometry" />
        </mxCell>
        <mxCell id="WumvJ4lYRt79ldeFu9Rn-59" value="- Agregar el carácter &#39;0&#39; al arreglo digits&lt;br&gt;- Incrementar digitsNumbers" style="whiteSpace=wrap;html=1;fillColor=#182E3E;strokeColor=#FFFFFF;fontColor=#FFFFFF;labelBackgroundColor=none;rounded=1;" parent="WIyWlLk6GJQsqaUBKTNV-1" vertex="1">
          <mxGeometry x="1326.88" y="1695" width="315" height="60" as="geometry" />
        </mxCell>
        <mxCell id="WumvJ4lYRt79ldeFu9Rn-61" value="&lt;font color=&quot;#000033&quot;&gt;si&lt;/font&gt;" style="text;html=1;strokeColor=none;fillColor=none;align=center;verticalAlign=middle;whiteSpace=wrap;rounded=1;fontColor=#FFFFFF;labelBackgroundColor=none;" parent="WIyWlLk6GJQsqaUBKTNV-1" vertex="1">
          <mxGeometry x="1494.38" y="1645" width="60" height="30" as="geometry" />
        </mxCell>
        <mxCell id="WumvJ4lYRt79ldeFu9Rn-68" value="" style="edgeStyle=orthogonalEdgeStyle;rounded=1;orthogonalLoop=1;jettySize=auto;html=1;strokeColor=#23445D;labelBackgroundColor=none;fontColor=default;" parent="WIyWlLk6GJQsqaUBKTNV-1" source="WumvJ4lYRt79ldeFu9Rn-64" target="WumvJ4lYRt79ldeFu9Rn-67" edge="1">
          <mxGeometry relative="1" as="geometry" />
        </mxCell>
        <mxCell id="WumvJ4lYRt79ldeFu9Rn-72" value="" style="edgeStyle=orthogonalEdgeStyle;rounded=1;orthogonalLoop=1;jettySize=auto;html=1;strokeColor=#23445D;labelBackgroundColor=none;fontColor=default;" parent="WIyWlLk6GJQsqaUBKTNV-1" source="WumvJ4lYRt79ldeFu9Rn-64" target="WumvJ4lYRt79ldeFu9Rn-71" edge="1">
          <mxGeometry relative="1" as="geometry" />
        </mxCell>
        <mxCell id="WumvJ4lYRt79ldeFu9Rn-64" value="Si num es igual a INT_MIN" style="rhombus;whiteSpace=wrap;html=1;fillColor=#182E3E;strokeColor=#FFFFFF;fontColor=#FFFFFF;labelBackgroundColor=none;rounded=1;" parent="WIyWlLk6GJQsqaUBKTNV-1" vertex="1">
          <mxGeometry x="1674.38" y="1687.5" width="170" height="90" as="geometry" />
        </mxCell>
        <mxCell id="WumvJ4lYRt79ldeFu9Rn-66" value="&lt;font color=&quot;#000033&quot;&gt;no&lt;/font&gt;" style="text;html=1;strokeColor=none;fillColor=none;align=center;verticalAlign=middle;whiteSpace=wrap;rounded=1;fontColor=#FFFFFF;labelBackgroundColor=none;" parent="WIyWlLk6GJQsqaUBKTNV-1" vertex="1">
          <mxGeometry x="1674.38" y="1640" width="60" height="30" as="geometry" />
        </mxCell>
        <mxCell id="WumvJ4lYRt79ldeFu9Rn-67" value="-&amp;nbsp;Establecer isNegative a 1&lt;br&gt;-&amp;nbsp;Agregar al arreglo digits el dígito correspondiente al valor absoluto de las unidades de num&lt;br&gt;-&amp;nbsp;Dividir num por 10 para eliminar las unidades ya agregadas al arreglo" style="whiteSpace=wrap;html=1;fillColor=#182E3E;strokeColor=#FFFFFF;fontColor=#FFFFFF;labelBackgroundColor=none;rounded=1;" parent="WIyWlLk6GJQsqaUBKTNV-1" vertex="1">
          <mxGeometry x="1894.38" y="1685" width="309" height="95" as="geometry" />
        </mxCell>
        <mxCell id="WumvJ4lYRt79ldeFu9Rn-74" value="" style="edgeStyle=orthogonalEdgeStyle;rounded=1;orthogonalLoop=1;jettySize=auto;html=1;strokeColor=#23445D;labelBackgroundColor=none;fontColor=default;" parent="WIyWlLk6GJQsqaUBKTNV-1" source="WumvJ4lYRt79ldeFu9Rn-71" target="WumvJ4lYRt79ldeFu9Rn-73" edge="1">
          <mxGeometry relative="1" as="geometry" />
        </mxCell>
        <mxCell id="WumvJ4lYRt79ldeFu9Rn-76" value="" style="edgeStyle=orthogonalEdgeStyle;rounded=1;orthogonalLoop=1;jettySize=auto;html=1;strokeColor=#23445D;exitX=0;exitY=0.5;exitDx=0;exitDy=0;labelBackgroundColor=none;fontColor=default;" parent="WIyWlLk6GJQsqaUBKTNV-1" source="WumvJ4lYRt79ldeFu9Rn-71" target="WumvJ4lYRt79ldeFu9Rn-75" edge="1">
          <mxGeometry relative="1" as="geometry" />
        </mxCell>
        <mxCell id="WumvJ4lYRt79ldeFu9Rn-71" value="Si num es negativo" style="rhombus;whiteSpace=wrap;html=1;fillColor=#182E3E;strokeColor=#FFFFFF;fontColor=#FFFFFF;labelBackgroundColor=none;rounded=1;" parent="WIyWlLk6GJQsqaUBKTNV-1" vertex="1">
          <mxGeometry x="1674.38" y="1820" width="170" height="90" as="geometry" />
        </mxCell>
        <mxCell id="WumvJ4lYRt79ldeFu9Rn-73" value="- Establecer isNegative a 1&lt;br&gt;-&amp;nbsp;Obtener el valor absoluto de num" style="whiteSpace=wrap;html=1;fillColor=#182E3E;strokeColor=#FFFFFF;fontColor=#FFFFFF;labelBackgroundColor=none;rounded=1;" parent="WIyWlLk6GJQsqaUBKTNV-1" vertex="1">
          <mxGeometry x="1894.38" y="1835" width="225" height="60" as="geometry" />
        </mxCell>
        <mxCell id="WumvJ4lYRt79ldeFu9Rn-84" value="" style="edgeStyle=orthogonalEdgeStyle;rounded=1;orthogonalLoop=1;jettySize=auto;html=1;strokeColor=#23445D;labelBackgroundColor=none;fontColor=default;" parent="WIyWlLk6GJQsqaUBKTNV-1" source="WumvJ4lYRt79ldeFu9Rn-75" target="WumvJ4lYRt79ldeFu9Rn-83" edge="1">
          <mxGeometry relative="1" as="geometry" />
        </mxCell>
        <mxCell id="WumvJ4lYRt79ldeFu9Rn-75" value="Mientras num sea mayor que 0" style="rhombus;whiteSpace=wrap;html=1;fillColor=#182E3E;strokeColor=#FFFFFF;fontColor=#FFFFFF;labelBackgroundColor=none;rounded=1;" parent="WIyWlLk6GJQsqaUBKTNV-1" vertex="1">
          <mxGeometry x="1474.38" y="1915" width="210" height="90" as="geometry" />
        </mxCell>
        <mxCell id="WumvJ4lYRt79ldeFu9Rn-83" value="- Agregar al arreglo digits el dígito correspondiente al último dígito de num&lt;br&gt;-&amp;nbsp;Dividir num por 10 para eliminar el último dígito" style="whiteSpace=wrap;html=1;fillColor=#182E3E;strokeColor=#FFFFFF;fontColor=#FFFFFF;labelBackgroundColor=none;rounded=1;" parent="WIyWlLk6GJQsqaUBKTNV-1" vertex="1">
          <mxGeometry x="1441.88" y="2035" width="275" height="60" as="geometry" />
        </mxCell>
        <mxCell id="WumvJ4lYRt79ldeFu9Rn-89" value="" style="endArrow=none;html=1;rounded=1;strokeColor=#23445D;entryX=0.963;entryY=0.496;entryDx=0;entryDy=0;entryPerimeter=0;labelBackgroundColor=none;fontColor=default;" parent="WIyWlLk6GJQsqaUBKTNV-1" target="WumvJ4lYRt79ldeFu9Rn-75" edge="1">
          <mxGeometry width="50" height="50" relative="1" as="geometry">
            <mxPoint x="1579.38" y="2125" as="sourcePoint" />
            <mxPoint x="1754.38" y="1965" as="targetPoint" />
            <Array as="points">
              <mxPoint x="1734.38" y="2125" />
              <mxPoint x="1734.38" y="1960" />
            </Array>
          </mxGeometry>
        </mxCell>
        <mxCell id="WumvJ4lYRt79ldeFu9Rn-90" value="" style="endArrow=none;html=1;rounded=1;strokeColor=#23445D;entryX=0.025;entryY=0.506;entryDx=0;entryDy=0;entryPerimeter=0;labelBackgroundColor=none;fontColor=default;" parent="WIyWlLk6GJQsqaUBKTNV-1" target="WumvJ4lYRt79ldeFu9Rn-75" edge="1">
          <mxGeometry width="50" height="50" relative="1" as="geometry">
            <mxPoint x="1579.38" y="2125" as="sourcePoint" />
            <mxPoint x="1474.38" y="1965" as="targetPoint" />
            <Array as="points">
              <mxPoint x="1424.38" y="2125" />
              <mxPoint x="1424.38" y="2045" />
              <mxPoint x="1424.38" y="1961" />
            </Array>
          </mxGeometry>
        </mxCell>
        <mxCell id="WumvJ4lYRt79ldeFu9Rn-95" value="Si el número es negativo" style="rhombus;whiteSpace=wrap;html=1;fillColor=#182E3E;strokeColor=#FFFFFF;fontColor=#FFFFFF;labelBackgroundColor=none;rounded=1;" parent="WIyWlLk6GJQsqaUBKTNV-1" vertex="1">
          <mxGeometry x="761.88" y="1700" width="192.5" height="80" as="geometry" />
        </mxCell>
        <mxCell id="WumvJ4lYRt79ldeFu9Rn-98" value="Incrementar count con la impresión del carácter &#39;-&#39;" style="whiteSpace=wrap;html=1;fillColor=#182E3E;strokeColor=#FFFFFF;fontColor=#FFFFFF;labelBackgroundColor=none;rounded=1;" parent="WIyWlLk6GJQsqaUBKTNV-1" vertex="1">
          <mxGeometry x="996.37" y="1710" width="290" height="60" as="geometry" />
        </mxCell>
        <mxCell id="WumvJ4lYRt79ldeFu9Rn-101" value="" style="endArrow=classic;html=1;rounded=0;exitX=1;exitY=0.5;exitDx=0;exitDy=0;entryX=0;entryY=0.5;entryDx=0;entryDy=0;labelBackgroundColor=none;strokeColor=#23445D;fontColor=default;" parent="WIyWlLk6GJQsqaUBKTNV-1" source="WumvJ4lYRt79ldeFu9Rn-95" target="WumvJ4lYRt79ldeFu9Rn-98" edge="1">
          <mxGeometry width="50" height="50" relative="1" as="geometry">
            <mxPoint x="1094.38" y="1840" as="sourcePoint" />
            <mxPoint x="1144.38" y="1790" as="targetPoint" />
          </mxGeometry>
        </mxCell>
        <mxCell id="WumvJ4lYRt79ldeFu9Rn-105" value="" style="edgeStyle=orthogonalEdgeStyle;rounded=0;orthogonalLoop=1;jettySize=auto;html=1;strokeColor=#23445D;" parent="WIyWlLk6GJQsqaUBKTNV-1" source="WumvJ4lYRt79ldeFu9Rn-102" target="WumvJ4lYRt79ldeFu9Rn-104" edge="1">
          <mxGeometry relative="1" as="geometry" />
        </mxCell>
        <mxCell id="WumvJ4lYRt79ldeFu9Rn-102" value="- Incrementar count con el valor de digitsNumbers&lt;br&gt;" style="rounded=1;whiteSpace=wrap;html=1;labelBackgroundColor=none;fillColor=#182E3E;strokeColor=#FFFFFF;fontColor=#FFFFFF;" parent="WIyWlLk6GJQsqaUBKTNV-1" vertex="1">
          <mxGeometry x="715.01" y="1820" width="286.25" height="60" as="geometry" />
        </mxCell>
        <mxCell id="WumvJ4lYRt79ldeFu9Rn-103" value="" style="endArrow=classic;html=1;rounded=0;exitX=0.5;exitY=1;exitDx=0;exitDy=0;entryX=0.5;entryY=0;entryDx=0;entryDy=0;labelBackgroundColor=none;strokeColor=#23445D;fontColor=default;" parent="WIyWlLk6GJQsqaUBKTNV-1" source="WumvJ4lYRt79ldeFu9Rn-95" target="WumvJ4lYRt79ldeFu9Rn-102" edge="1">
          <mxGeometry width="50" height="50" relative="1" as="geometry">
            <mxPoint x="1094.38" y="1840" as="sourcePoint" />
            <mxPoint x="1144.38" y="1790" as="targetPoint" />
          </mxGeometry>
        </mxCell>
        <mxCell id="WumvJ4lYRt79ldeFu9Rn-107" value="" style="edgeStyle=orthogonalEdgeStyle;rounded=0;orthogonalLoop=1;jettySize=auto;html=1;strokeColor=#23445D;" parent="WIyWlLk6GJQsqaUBKTNV-1" source="WumvJ4lYRt79ldeFu9Rn-104" target="WumvJ4lYRt79ldeFu9Rn-106" edge="1">
          <mxGeometry relative="1" as="geometry" />
        </mxCell>
        <mxCell id="WumvJ4lYRt79ldeFu9Rn-104" value="Mientras digitsNumbers sea mayor que 0" style="rhombus;whiteSpace=wrap;html=1;fillColor=#182E3E;strokeColor=#FFFFFF;fontColor=#FFFFFF;rounded=1;labelBackgroundColor=none;" parent="WIyWlLk6GJQsqaUBKTNV-1" vertex="1">
          <mxGeometry x="722" y="1930" width="274.37" height="120" as="geometry" />
        </mxCell>
        <mxCell id="WumvJ4lYRt79ldeFu9Rn-106" value="- Imprimir el dígito almacenado en digits en la posición digitsNumbers-1&lt;br&gt;- Decrementar digitsNumbers" style="whiteSpace=wrap;html=1;fillColor=#182E3E;strokeColor=#FFFFFF;fontColor=#FFFFFF;rounded=1;labelBackgroundColor=none;" parent="WIyWlLk6GJQsqaUBKTNV-1" vertex="1">
          <mxGeometry x="661.88" y="2080" width="396.87" height="60" as="geometry" />
        </mxCell>
        <mxCell id="WumvJ4lYRt79ldeFu9Rn-108" value="Retornar count" style="shape=parallelogram;perimeter=parallelogramPerimeter;whiteSpace=wrap;html=1;fixedSize=1;strokeColor=#FFFFFF;fontColor=#FFFFFF;fillColor=#182E3E;" parent="WIyWlLk6GJQsqaUBKTNV-1" vertex="1">
          <mxGeometry x="799.19" y="2240" width="120" height="60" as="geometry" />
        </mxCell>
        <mxCell id="WumvJ4lYRt79ldeFu9Rn-109" value="" style="endArrow=classic;html=1;rounded=0;strokeColor=#23445D;exitX=0.5;exitY=1;exitDx=0;exitDy=0;entryX=0.5;entryY=0;entryDx=0;entryDy=0;" parent="WIyWlLk6GJQsqaUBKTNV-1" source="WumvJ4lYRt79ldeFu9Rn-106" target="WumvJ4lYRt79ldeFu9Rn-108" edge="1">
          <mxGeometry width="50" height="50" relative="1" as="geometry">
            <mxPoint x="1124.38" y="2110" as="sourcePoint" />
            <mxPoint x="1174.38" y="2060" as="targetPoint" />
          </mxGeometry>
        </mxCell>
        <mxCell id="WumvJ4lYRt79ldeFu9Rn-110" value="" style="endArrow=none;html=1;rounded=0;strokeColor=#23445D;entryX=0.965;entryY=0.492;entryDx=0;entryDy=0;entryPerimeter=0;" parent="WIyWlLk6GJQsqaUBKTNV-1" target="WumvJ4lYRt79ldeFu9Rn-104" edge="1">
          <mxGeometry width="50" height="50" relative="1" as="geometry">
            <mxPoint x="859.38" y="2200" as="sourcePoint" />
            <mxPoint x="1074.38" y="1920" as="targetPoint" />
            <Array as="points">
              <mxPoint x="1074.38" y="2200" />
              <mxPoint x="1074.38" y="1989" />
            </Array>
          </mxGeometry>
        </mxCell>
        <mxCell id="WumvJ4lYRt79ldeFu9Rn-111" value="" style="endArrow=none;html=1;rounded=0;strokeColor=#23445D;entryX=0.022;entryY=0.502;entryDx=0;entryDy=0;entryPerimeter=0;" parent="WIyWlLk6GJQsqaUBKTNV-1" target="WumvJ4lYRt79ldeFu9Rn-104" edge="1">
          <mxGeometry width="50" height="50" relative="1" as="geometry">
            <mxPoint x="859.38" y="2200" as="sourcePoint" />
            <mxPoint x="1014.38" y="2050" as="targetPoint" />
            <Array as="points">
              <mxPoint x="634.38" y="2200" />
              <mxPoint x="634.38" y="1990" />
            </Array>
          </mxGeometry>
        </mxCell>
        <mxCell id="k4tp6VtG_gmkp5LK19nQ-4" value="" style="edgeStyle=orthogonalEdgeStyle;rounded=0;orthogonalLoop=1;jettySize=auto;html=1;" edge="1" parent="WIyWlLk6GJQsqaUBKTNV-1" source="k4tp6VtG_gmkp5LK19nQ-1" target="k4tp6VtG_gmkp5LK19nQ-3">
          <mxGeometry relative="1" as="geometry" />
        </mxCell>
        <mxCell id="k4tp6VtG_gmkp5LK19nQ-1" value="Definir la función _printf" style="whiteSpace=wrap;html=1;fillColor=#182E3E;strokeColor=#FFFFFF;fontColor=#FFFFFF;labelBackgroundColor=none;rounded=1;" vertex="1" parent="WIyWlLk6GJQsqaUBKTNV-1">
          <mxGeometry x="450" y="2480" width="215.01" height="60" as="geometry" />
        </mxCell>
        <mxCell id="k4tp6VtG_gmkp5LK19nQ-6" value="" style="edgeStyle=orthogonalEdgeStyle;rounded=0;orthogonalLoop=1;jettySize=auto;html=1;" edge="1" parent="WIyWlLk6GJQsqaUBKTNV-1" source="k4tp6VtG_gmkp5LK19nQ-3" target="k4tp6VtG_gmkp5LK19nQ-5">
          <mxGeometry relative="1" as="geometry" />
        </mxCell>
        <mxCell id="k4tp6VtG_gmkp5LK19nQ-10" value="" style="edgeStyle=orthogonalEdgeStyle;rounded=0;orthogonalLoop=1;jettySize=auto;html=1;" edge="1" parent="WIyWlLk6GJQsqaUBKTNV-1" source="k4tp6VtG_gmkp5LK19nQ-3" target="k4tp6VtG_gmkp5LK19nQ-9">
          <mxGeometry relative="1" as="geometry" />
        </mxCell>
        <mxCell id="k4tp6VtG_gmkp5LK19nQ-15" value="" style="edgeStyle=orthogonalEdgeStyle;rounded=0;orthogonalLoop=1;jettySize=auto;html=1;" edge="1" parent="WIyWlLk6GJQsqaUBKTNV-1" source="k4tp6VtG_gmkp5LK19nQ-3" target="k4tp6VtG_gmkp5LK19nQ-14">
          <mxGeometry relative="1" as="geometry" />
        </mxCell>
        <mxCell id="k4tp6VtG_gmkp5LK19nQ-3" value="Iniciar función _printf(format, ...)" style="rhombus;whiteSpace=wrap;html=1;fillColor=#182E3E;strokeColor=#FFFFFF;fontColor=#FFFFFF;labelBackgroundColor=none;rounded=1;" vertex="1" parent="WIyWlLk6GJQsqaUBKTNV-1">
          <mxGeometry x="812.52" y="2470" width="241.86" height="80" as="geometry" />
        </mxCell>
        <mxCell id="k4tp6VtG_gmkp5LK19nQ-5" value="- Declarar el contador total count y la lista de argumentos args&lt;br&gt;- Iniciar args con va_start para obtener los argumentos variables" style="whiteSpace=wrap;html=1;fillColor=#182E3E;strokeColor=#FFFFFF;fontColor=#FFFFFF;labelBackgroundColor=none;rounded=1;" vertex="1" parent="WIyWlLk6GJQsqaUBKTNV-1">
          <mxGeometry x="1054.38" y="2370" width="399.07" height="60" as="geometry" />
        </mxCell>
        <mxCell id="k4tp6VtG_gmkp5LK19nQ-12" value="" style="edgeStyle=orthogonalEdgeStyle;rounded=0;orthogonalLoop=1;jettySize=auto;html=1;" edge="1" parent="WIyWlLk6GJQsqaUBKTNV-1" source="k4tp6VtG_gmkp5LK19nQ-9" target="k4tp6VtG_gmkp5LK19nQ-11">
          <mxGeometry relative="1" as="geometry" />
        </mxCell>
        <mxCell id="k4tp6VtG_gmkp5LK19nQ-9" value="Si format es NULL" style="rhombus;whiteSpace=wrap;html=1;fillColor=#182E3E;strokeColor=#FFFFFF;fontColor=#FFFFFF;labelBackgroundColor=none;rounded=1;" vertex="1" parent="WIyWlLk6GJQsqaUBKTNV-1">
          <mxGeometry x="1215.31" y="2470" width="199.07" height="80" as="geometry" />
        </mxCell>
        <mxCell id="k4tp6VtG_gmkp5LK19nQ-11" value="Retornar -1 (error)" style="whiteSpace=wrap;html=1;fillColor=#182E3E;strokeColor=#FFFFFF;fontColor=#FFFFFF;labelBackgroundColor=none;rounded=1;" vertex="1" parent="WIyWlLk6GJQsqaUBKTNV-1">
          <mxGeometry x="1533.915" y="2480" width="120" height="60" as="geometry" />
        </mxCell>
        <mxCell id="k4tp6VtG_gmkp5LK19nQ-13" value="Si" style="text;html=1;strokeColor=none;fillColor=none;align=center;verticalAlign=middle;whiteSpace=wrap;rounded=0;" vertex="1" parent="WIyWlLk6GJQsqaUBKTNV-1">
          <mxGeometry x="1434.38" y="2480" width="60" height="30" as="geometry" />
        </mxCell>
        <mxCell id="k4tp6VtG_gmkp5LK19nQ-19" value="" style="edgeStyle=orthogonalEdgeStyle;rounded=0;orthogonalLoop=1;jettySize=auto;html=1;" edge="1" parent="WIyWlLk6GJQsqaUBKTNV-1" source="k4tp6VtG_gmkp5LK19nQ-14" target="k4tp6VtG_gmkp5LK19nQ-18">
          <mxGeometry relative="1" as="geometry" />
        </mxCell>
        <mxCell id="k4tp6VtG_gmkp5LK19nQ-21" value="" style="edgeStyle=orthogonalEdgeStyle;rounded=0;orthogonalLoop=1;jettySize=auto;html=1;" edge="1" parent="WIyWlLk6GJQsqaUBKTNV-1" source="k4tp6VtG_gmkp5LK19nQ-14" target="k4tp6VtG_gmkp5LK19nQ-20">
          <mxGeometry relative="1" as="geometry" />
        </mxCell>
        <mxCell id="k4tp6VtG_gmkp5LK19nQ-14" value="Si el nuevo carácter apuntado por format es &#39;c&#39;" style="rhombus;whiteSpace=wrap;html=1;fillColor=#182E3E;strokeColor=#FFFFFF;fontColor=#FFFFFF;labelBackgroundColor=none;rounded=1;" vertex="1" parent="WIyWlLk6GJQsqaUBKTNV-1">
          <mxGeometry x="785.98" y="2620" width="294.94" height="110" as="geometry" />
        </mxCell>
        <mxCell id="k4tp6VtG_gmkp5LK19nQ-18" value="Incrementar count con la impresión del carácter de la lista de argumentos" style="whiteSpace=wrap;html=1;fillColor=#182E3E;strokeColor=#FFFFFF;fontColor=#FFFFFF;labelBackgroundColor=none;rounded=1;" vertex="1" parent="WIyWlLk6GJQsqaUBKTNV-1">
          <mxGeometry x="1184.38" y="2645" width="445.99" height="60" as="geometry" />
        </mxCell>
        <mxCell id="k4tp6VtG_gmkp5LK19nQ-23" value="" style="edgeStyle=orthogonalEdgeStyle;rounded=0;orthogonalLoop=1;jettySize=auto;html=1;" edge="1" parent="WIyWlLk6GJQsqaUBKTNV-1" source="k4tp6VtG_gmkp5LK19nQ-20" target="k4tp6VtG_gmkp5LK19nQ-22">
          <mxGeometry relative="1" as="geometry" />
        </mxCell>
        <mxCell id="k4tp6VtG_gmkp5LK19nQ-25" value="" style="edgeStyle=orthogonalEdgeStyle;rounded=0;orthogonalLoop=1;jettySize=auto;html=1;" edge="1" parent="WIyWlLk6GJQsqaUBKTNV-1" source="k4tp6VtG_gmkp5LK19nQ-20" target="k4tp6VtG_gmkp5LK19nQ-24">
          <mxGeometry relative="1" as="geometry" />
        </mxCell>
        <mxCell id="k4tp6VtG_gmkp5LK19nQ-20" value="De lo contrario, si el nuevo carácter apuntado por format es &#39;s&#39;" style="rhombus;whiteSpace=wrap;html=1;fillColor=#182E3E;strokeColor=#FFFFFF;fontColor=#FFFFFF;labelBackgroundColor=none;rounded=1;" vertex="1" parent="WIyWlLk6GJQsqaUBKTNV-1">
          <mxGeometry x="755.95" y="2760" width="440.93" height="135" as="geometry" />
        </mxCell>
        <mxCell id="k4tp6VtG_gmkp5LK19nQ-22" value="Incrementar count con la impresión de la cadena de la lista de argumentos" style="whiteSpace=wrap;html=1;fillColor=#182E3E;strokeColor=#FFFFFF;fontColor=#FFFFFF;labelBackgroundColor=none;rounded=1;" vertex="1" parent="WIyWlLk6GJQsqaUBKTNV-1">
          <mxGeometry x="1254.38" y="2797.5" width="450.01" height="60" as="geometry" />
        </mxCell>
        <mxCell id="k4tp6VtG_gmkp5LK19nQ-27" value="" style="edgeStyle=orthogonalEdgeStyle;rounded=0;orthogonalLoop=1;jettySize=auto;html=1;" edge="1" parent="WIyWlLk6GJQsqaUBKTNV-1" source="k4tp6VtG_gmkp5LK19nQ-24" target="k4tp6VtG_gmkp5LK19nQ-26">
          <mxGeometry relative="1" as="geometry" />
        </mxCell>
        <mxCell id="k4tp6VtG_gmkp5LK19nQ-24" value="De lo contrario, si el nuevo carácter apuntado por format es &#39;%&#39;" style="rhombus;whiteSpace=wrap;html=1;fillColor=#182E3E;strokeColor=#FFFFFF;fontColor=#FFFFFF;labelBackgroundColor=none;rounded=1;" vertex="1" parent="WIyWlLk6GJQsqaUBKTNV-1">
          <mxGeometry x="824.38" y="2960" width="397.96" height="127.5" as="geometry" />
        </mxCell>
        <mxCell id="k4tp6VtG_gmkp5LK19nQ-26" value="- Incrementar `count` con la impresion del caracter &#39;%&#39;&amp;nbsp;&lt;br&gt;-&amp;nbsp; Incrementar `count` con la impresion del caracter apuntado por `format`" style="whiteSpace=wrap;html=1;fillColor=#182E3E;strokeColor=#FFFFFF;fontColor=#FFFFFF;labelBackgroundColor=none;rounded=1;" vertex="1" parent="WIyWlLk6GJQsqaUBKTNV-1">
          <mxGeometry x="1441.88" y="2993.75" width="448.12" height="60" as="geometry" />
        </mxCell>
      </root>
    </mxGraphModel>
  </diagram>
</mxfile>
